<?xml version="1.0" encoding="UTF-8"?>
<svg id="Layer_2" data-name="Layer 2" xmlns="http://www.w3.org/2000/svg" viewBox="0 0 100.25 106.4">
  <defs>
    <style>
      .cls-1 {
        fill: #fff;
      }

      .cls-1, .cls-2 {
        stroke-width: 0px;
      }

      .cls-2 {
        fill: #45533c;
      }
    </style>
  </defs>
  <g id="Layer_1-2" data-name="Layer 1">
    <g>
      <path class="cls-2" d="M100.25,46.06c-.1,1.11-.22,2.23-.31,3.34-.36,4.62-1.38,9.11-3.16,13.38-2.05,4.92-5,9.23-9.23,12.57-3.47,2.75-7.4,4.46-11.77,4.99-2.25.27-4.56.35-6.79-.48-4.08-1.52-6.28-4.54-6.97-8.73-.21-1.28-.22-2.58-.33-3.92-.57-.3-.77.16-1.07.54-1.6,2.08-3.06,4.28-4.86,6.18-3.39,3.58-7.63,5.66-12.53,6.32-3.17.43-6.3.42-9.35-.79-2.92-1.16-5.3-3-7.09-5.56-3.09-4.42-3.98-9.4-3.62-14.67.27-3.97,1.01-7.87,2.63-11.5,1.12-2.52,2.46-4.96,3.95-7.28,2.2-3.44,5.12-6.27,8.43-8.63,4.42-3.15,9.33-5.2,14.72-6.11,4.97-.84,9.93-.8,14.84.26,2.41.52,4.76,1.38,7.14,2.04.58.16.68.42.57.98-.61,3.16-1.19,6.33-1.78,9.49-1.06,5.69-2.09,11.38-3.18,17.06-.63,3.31-1.13,6.64-1,10.02.06,1.58.28,3.12.97,4.6,1.18,2.54,3.7,3.24,6.01,2.85,3.85-.65,6.59-2.96,8.86-5.93,2.34-3.04,3.81-6.52,4.79-10.21,1.16-4.37,1.59-8.84,1.44-13.35-.16-4.68-.87-9.28-2.43-13.71-1.01-2.85-2.34-5.56-4.03-8.09-2.24-3.33-4.99-6.15-8.27-8.42-3.32-2.29-6.97-3.89-10.9-4.9-3.97-1.03-8.01-1.47-12.08-1.41-6.31.09-12.36,1.43-18.12,4.08-5.07,2.34-9.53,5.52-13.36,9.54-4.15,4.35-7.41,9.33-9.54,14.97-1.06,2.79-2.03,5.64-2.65,8.55-.69,3.22-1.08,6.52-1.34,9.8-.21,2.7-.19,5.43,0,8.13.39,5.23,1.54,10.3,3.7,15.13,1.77,3.93,4.1,7.48,7.07,10.58,2.43,2.54,5.21,4.67,8.31,6.37,4.61,2.53,9.53,4.07,14.76,4.61,5.55.57,11.06.35,16.54-.77,4.09-.84,7.99-2.17,11.8-4.22.81,2.17,1.61,4.29,2.45,6.53-1.73.79-3.39,1.63-5.11,2.3-3.29,1.29-6.68,2.25-10.18,2.8-5.04.78-10.1,1.24-15.21.85-5.48-.42-10.78-1.58-15.82-3.77-5.96-2.59-11.16-6.28-15.49-11.16-4.97-5.61-8.25-12.1-10.07-19.33C.29,66.82-.16,61.56.05,56.25c.3-7.34,1.68-14.47,4.4-21.3,2.38-5.97,5.61-11.45,9.82-16.34,3.35-3.88,7.15-7.24,11.44-10.01,4.12-2.66,8.54-4.67,13.25-6.1,4.27-1.3,8.63-1.99,13.06-2.33.22-.02.43-.1.64-.16,1.98,0,3.97,0,5.95,0,.97.12,1.95.26,2.92.36,4.95.51,9.72,1.73,14.25,3.78,7.64,3.45,13.68,8.75,18.02,15.91,3.48,5.73,5.45,12,6.1,18.67.09.97.23,1.94.34,2.91v4.42ZM43.07,72.38c4.02-.16,7.1-1.85,9.76-4.34,4.56-4.27,7.5-9.51,8.87-15.59.66-2.94,1.13-5.93,1.69-8.9.54-2.89,1.09-5.77,1.65-8.66.1-.51-.03-.8-.57-.89-.75-.13-1.49-.31-2.24-.45-3.44-.63-6.87-.58-10.25.32-2.73.72-5.22,1.95-7.51,3.62-3.07,2.25-5.53,5.05-7.42,8.35-2.48,4.32-3.76,8.99-3.9,13.97-.08,2.59.18,5.15,1.38,7.5,1.83,3.58,4.93,5.02,8.55,5.07Z"/>
      <path class="cls-1" d="M100.25,41.64c-.11-.97-.25-1.94-.34-2.91-.65-6.68-2.62-12.94-6.1-18.67-4.35-7.16-10.39-12.45-18.02-15.91-4.54-2.05-9.3-3.27-14.25-3.78C60.56.26,59.59.12,58.61,0h41.64v41.64Z"/>
      <path class="cls-1" d="M43.07,72.38c-3.62-.05-6.72-1.49-8.55-5.07-1.2-2.35-1.45-4.91-1.38-7.5.14-4.98,1.42-9.65,3.9-13.97,1.89-3.3,4.35-6.09,7.42-8.35,2.28-1.67,4.78-2.9,7.51-3.62,3.38-.89,6.81-.95,10.25-.32.75.14,1.49.32,2.24.45.55.09.67.38.57.89-.56,2.88-1.1,5.77-1.65,8.66-.56,2.97-1.02,5.96-1.69,8.9-1.37,6.08-4.31,11.33-8.87,15.59-2.66,2.49-5.75,4.18-9.76,4.34Z"/>
    </g>
  </g>
</svg>