<?xml version="1.0" encoding="UTF-8"?>
<svg id="Layer_2" data-name="Layer 2" xmlns="http://www.w3.org/2000/svg" viewBox="0 0 198.14 351.85">
  <defs>
    <style>
      .cls-1 {
        fill: #45533c;
        stroke-width: 0px;
      }
    </style>
  </defs>
  <g id="Layer_1-2" data-name="Layer 1">
    <g>
      <path class="cls-1" d="M99.02,313.04c-6.64-14.61-12.81-27.97-18.8-41.4-17.37-38.98-34.9-77.88-51.89-117.02-7.14-16.45-12.65-33.51-15.83-51.29C3.35,52.26,39.56,6.25,88.23.6c45.37-5.27,86.16,24.78,96.31,66.19,4.45,18.16,2.76,36.31-3.24,53.58-8.11,23.33-17.1,46.41-26.93,69.06-17.77,40.95-36.44,81.52-55.35,123.61ZM98.86,129.14c21.46.88,41.24-17.63,42.19-39.48,1.04-24.03-17.18-44.19-41.35-44.48-23.94-.29-41.05,17.71-42.61,39.12-1.82,25.12,18.65,45.22,41.77,44.85Z"/>
      <path class="cls-1" d="M80.96,291.27c-10.92,3.01-21.37,5.59-31.58,8.88-3.48,1.12-6.71,3.71-9.45,6.28-4.23,3.96-4.49,9.12.1,12.52,5.09,3.78,10.89,7.29,16.92,8.98,30.16,8.42,60.34,8.53,90.13-2.02,3.52-1.25,6.96-3.27,9.86-5.65,5.82-4.78,5.7-10.27-.03-15.14-7.07-6.02-15.81-8.25-24.58-10.21-4.97-1.11-10.04-1.78-15.61-2.75,2.45-5.37,4.8-10.63,7.31-15.81.31-.64,1.59-1.31,2.31-1.2,21.44,3.15,42.8,6.75,60.92,19.89,14.13,10.24,14.44,23.09,1.16,34.38-1.64,1.39-3.43,2.63-5.26,3.78-14.08,8.82-29.87,12.86-45.95,15.48-28.66,4.67-57.35,4.27-85.81-1.85-14.67-3.16-28.95-7.57-41.09-16.94-2.22-1.71-4.31-3.73-5.99-5.96-6.18-8.22-5.74-16.3,1.12-23.97,6.63-7.42,15.16-12.22,24.42-14.91,13.5-3.91,27.34-6.63,41.08-9.68.97-.21,2.83.81,3.32,1.76,2.5,4.83,4.68,9.82,6.68,14.13Z"/>
    </g>
  </g>
</svg>