<?xml version="1.0" encoding="UTF-8"?>
<svg id="Layer_2" data-name="Layer 2" xmlns="http://www.w3.org/2000/svg" viewBox="0 0 145.67 145.52">
  <defs>
    <style>
      .cls-1 {
        fill: #45533c;
        stroke-width: 0px;
      }
    </style>
  </defs>
  <g id="Layer_1-2" data-name="Layer 1">
    <path class="cls-1" d="M75.68,145.52h-5.7c-.2-.05-.39-.12-.59-.13-1.21-.07-2.42-.08-3.63-.21-4.76-.5-9.44-1.38-14.02-2.78-12.6-3.86-23.4-10.6-32.36-20.26-7.63-8.23-13.06-17.72-16.31-28.45-1.46-4.81-2.39-9.72-2.79-14.73C.21,77.89.1,76.83,0,75.77c0-2.06,0-4.11,0-6.17.05-.17.12-.34.13-.51.12-1.41.2-2.83.34-4.24.6-6.06,2.01-11.94,4.17-17.63,5.11-13.46,13.46-24.52,25.05-33.06C40.96,5.85,53.65,1.24,67.62.19c5.19-.39,10.37-.16,15.53.57,5.53.78,10.91,2.16,16.1,4.2,11.86,4.66,21.86,11.9,29.94,21.74,6.24,7.61,10.76,16.14,13.52,25.59,1.37,4.67,2.28,9.43,2.66,14.29.09,1.12.2,2.23.3,3.35v5.85c-.04.14-.11.29-.12.43-.28,2.69-.47,5.39-.84,8.07-.79,5.66-2.39,11.11-4.6,16.37-4.93,11.76-12.42,21.6-22.48,29.47-6.87,5.38-14.48,9.38-22.8,12.02-5.15,1.63-10.41,2.7-15.79,3.1-1.12.08-2.23.2-3.35.3ZM38.28,102.22c-2.95-8.45-4.61-17.06-5.01-25.89H7.24c.52,13.15,5.63,26.03,12.69,35.36,5.76-3.79,11.85-6.95,18.36-9.47ZM125.84,111.61c3.76-5.14,6.75-10.71,8.9-16.73,2.14-6,3.39-12.17,3.71-18.55h-25.08c-.41,9.02-2.11,17.74-5.07,26.13,3.01,1.43,6.01,2.74,8.91,4.26,2.91,1.52,5.71,3.23,8.61,4.9ZM33.21,69.23c.02-.2.04-.33.06-.46.27-2.85.43-5.72.82-8.55.68-4.91,1.8-9.74,3.32-14.46.16-.49.08-.68-.4-.87-1.29-.51-2.57-1.07-3.84-1.65-4.97-2.24-9.69-4.91-14.3-8.02-7.07,10.26-10.98,21.55-11.69,34.01h26.02ZM126.75,35.3s-.1.02-.14.05c-5.45,3.64-11.18,6.76-17.25,9.23-.42.17-.45.37-.33.78.7,2.41,1.42,4.82,2.02,7.26,1.01,4.1,1.71,8.27,2.02,12.49.1,1.36.24,2.71.36,4.09h24.97c.63-8.51-6.1-28.07-11.65-33.9ZM106.28,76.26c-.41,0-.67,0-.93,0-9.36,0-18.72,0-28.08-.02-.77,0-.96.21-.96.97.03,6.01.02,12.01.02,18.02,0,.2.04.4.06.63,8.61.34,16.98,1.78,25.2,4.34,2.74-7.78,4.32-15.68,4.68-23.94ZM69.28,95.86c.02-.32.04-.58.04-.84,0-5.9,0-11.8,0-17.71q0-1.05-1.08-1.05c-8.31,0-16.62,0-24.93,0h-2.95c.4,8.17,1.93,15.98,4.62,23.65,7.94-2.38,16.01-3.72,24.3-4.05ZM106.17,69.21c.48-3.49-2.22-18.09-4.06-21.97-8.34,2.67-16.92,4.15-25.72,4.51-.02.34-.05.6-.05.85,0,5.24.01,10.49-.02,15.73,0,.73.21.93.93.92,9.39-.02,18.77-.02,28.16-.02.26,0,.51-.02.76-.03ZM40.36,69.19h28.9v-17.43c-8.54-.35-16.84-1.75-24.98-4.28-2.27,7.1-3.6,14.29-3.92,21.71ZM76.62,7.17c-.07.03-.14.05-.22.08v37.3c3.7.51,19.55-2.24,23.27-4.05-5.41-12.69-13.33-23.64-23.05-33.34ZM69.29,44.66V7.46c-9.6,9.82-17.3,20.71-22.57,33.36,7.37,2.24,14.84,3.54,22.57,3.84ZM76.38,138.36c3.91-1.24,20.66-24.81,22.5-31.54-4.31-1.8-19.73-4.36-22.5-3.73v35.27ZM69.28,137.86v-34.9c-7.4.29-14.58,1.47-21.69,3.59,5.25,11.83,12.63,22.06,21.69,31.32ZM58.38,8.76c-7.46,1.59-14.37,4.47-20.78,8.54-5.37,3.41-10.14,7.51-14.32,12.31,4.1,2.94,14.05,8.15,16.79,8.78,4.45-10.87,10.72-20.64,18.31-29.63ZM122.42,29.62c-9.36-10.51-20.77-17.45-34.6-20.84,7.78,8.97,14.01,18.63,18.55,29.4,5.65-2.33,10.95-5.13,16.05-8.56ZM58.52,136.78c-7.19-8.52-13.22-17.74-17.66-27.94-4.55,1.57-14.39,6.64-16.37,8.44,9.35,9.97,20.65,16.52,34.03,19.5ZM105.66,109.15c-2.19,5.01-4.78,9.78-7.73,14.36-2.93,4.56-6.2,8.88-9.69,13.04,12.94-3.14,23.88-9.6,32.99-19.34-4.97-3.23-10.11-5.88-15.57-8.06Z"/>
  </g>
</svg>