<?xml version="1.0" encoding="UTF-8"?>
<svg id="Layer_2" data-name="Layer 2" xmlns="http://www.w3.org/2000/svg" viewBox="0 0 76.05 76">
  <defs>
    <style>
      .cls-1 {
        fill: #45533c;
        stroke-width: 0px;
      }
    </style>
  </defs>
  <g id="Layer_1-2" data-name="Layer 1">
    <path class="cls-1" d="M75.99,59.99c.17,2.87.06,5.96-1.57,8.79-2.64,4.59-6.56,7.27-11.89,7.21-22.8-.26-40.39-10.18-52.95-29.06C4.34,39.07,1.38,30.29.35,20.92c-.37-3.33-.54-6.81-.01-10.1C1.44,4,7.87-.14,13.55,0c2.17.06,4.34.05,6.51,0,1.51-.03,2.56.61,3.03,2,1.98,5.8,3.95,11.6,5.84,17.43.43,1.33.04,2.55-1.18,3.47-1.44,1.09-2.78,2.31-4.21,3.42-.64.5-.81.95-.47,1.71,5.17,11.5,13.46,19.84,25.03,24.92.68.3,1.06.15,1.49-.39,1.17-1.49,2.43-2.92,3.58-4.42.94-1.23,2.18-1.48,3.51-1.05,5.7,1.85,11.39,3.75,17.07,5.68,1.67.57,2.22,1.47,2.23,3.29,0,1.22,0,2.44,0,3.94ZM15.25,5.71c-.27,0-.54,0-.81,0-5.52,0-8.93,3.25-8.7,8.75.15,3.77.55,7.57,1.31,11.26,5.33,25.86,28.93,44.82,55.36,44.58,3.55-.03,6.82-2.4,7.54-5.86.42-2,.28-4.13.3-6.2,0-.29-.47-.73-.81-.85-3.97-1.35-7.96-2.63-11.92-3.99-.73-.25-1.17-.12-1.62.46-1.04,1.31-2.11,2.6-3.17,3.89-1.65,1.99-2.43,2.2-4.82,1.28-8.84-3.4-16.29-8.72-22.32-16.03-3.68-4.47-6.53-9.42-8.6-14.82-.94-2.45-.7-3.31,1.3-4.94,1.26-1.03,2.49-2.09,3.78-3.09.62-.49.77-.94.5-1.72-1.13-3.23-2.22-6.48-3.26-9.74-.96-2.97-.93-2.98-4.05-2.98Z"/>
  </g>
</svg>